:SAMPLES-PER-SECOND 30
:FULLY-SPECIFIED
:DEGREES
322
root  -13.2707 40.9665 -8.49077 -4.11572 -81.8147 3.80524
RightUpLeg  -0.01707 -10.8718 -10.9252
RightLeg  2.08773 -14.9464 3.20147
RightFoot  2.26297 -0.519623 4.48303
RightToes  0.00048216 0.542163 -0.142577
Spine  -8.1547 2.20086 -0.626765
Spine1  18.409 5.10257 -7.20521
HEad  -20.9417 -12.0714 5.5084
LeftShoulder1  8.27741 -15.4977 -37.4249
LeftArm  46.9591 39.1172 6.42127
LeftForeArm  -145.71 -66.7186 -161.645
LeftHand  -0.25398 0.0180481 5.50724
RightShoulder  3.894 7.84487 28.3131
RightArm  41.8021 -41.7929 15.4197
RightForeArm  173.291 79.4341 129.603
RightHand  -6.09614 23.1008 -24.8844
LeftUpLeg  -2.17267 4.52405 2.84276
LeftLeg  5.78755 2.37271 -2.69871
LeftFoot  -3.50014 0.0352687 -0.204987
LeftToes  1.06246e-005 4.65855e-005 -8.18503e-006
323
root  -13.1744 40.9679 -8.35128 -4.92712 -81.9521 4.81458
RightUpLeg  -0.198045 -10.8771 -11.1718
RightLeg  1.69837 -14.792 3.15446
RightFoot  2.53669 -0.559489 4.73639
RightToes  0.00048216 0.542163 -0.142577
Spine  -8.19748 1.74995 -1.00263
Spine1  18.5056 4.16909 -5.86193
HEad  -21.5439 -12.0668 5.34886
LeftShoulder1  8.39008 -15.578 -37.8173
LeftArm  47.12 39.7 6.15606
LeftForeArm  -146.267 -67.4525 -160.933
LeftHand  -0.25398 0.0180481 5.50724
RightShoulder  3.86722 7.73635 28.4086
RightArm  40.2879 -42.5629 14.8591
RightForeArm  -178.647 78.4853 135.689
RightHand  -5.30412 22.1692 -22.5189
LeftUpLeg  -2.37039 4.2939 2.47353
LeftLeg  5.56197 2.81954 -2.78239
LeftFoot  -3.36191 0.0241155 -0.0329509
LeftToes  1.06246e-005 4.65855e-005 -8.18503e-006
324
root  -13.0707 40.9657 -8.22698 -5.79059 -82.2902 5.78088
RightUpLeg  -0.391133 -10.8773 -11.3641
RightLeg  1.41256 -14.4402 3.09039
RightFoot  2.7687 -0.590627 4.92183
RightToes  0.00048216 0.542163 -0.142577
Spine  -8.12768 1.36525 -1.22445
Spine1  18.735 3.33808 -4.63104
HEad  -22.1888 -11.2176 5.06763
LeftShoulder1  8.44824 -15.5674 -38.1343
LeftArm  47.2406 39.8848 5.76083
LeftForeArm  -146.717 -68.1652 -160.206
LeftHand  -0.25398 0.0180481 5.50724
RightShoulder  3.86592 7.69275 28.5341
RightArm  39.4319 -42.7366 14.1889
RightForeArm  -173.273 77.6158 139.896
RightHand  -4.87877 21.6699 -21.1669
LeftUpLeg  -2.54284 4.1727 2.16837
LeftLeg  5.50553 3.32329 -2.8341
LeftFoot  -3.31322 0.01322 0.133359
LeftToes  1.06246e-005 4.65855e-005 -8.18503e-006
325
root  -12.9663 40.9571 -8.11298 -7.1853 -82.8531 7.1543
RightUpLeg  -0.619596 -10.9399 -11.5831
RightLeg  1.32932 -13.7988 3.01716
RightFoot  2.967 -0.616135 5.06663
RightToes  0.00048216 0.542163 -0.142577
Spine  -7.82563 1.12075 -1.14454
Spine1  18.8569 2.75473 -3.77605
HEad  -22.6809 -9.94013 4.81115
LeftShoulder1  8.48596 -15.569 -38.3205
LeftArm  47.5152 39.7625 5.37378
LeftForeArm  -147.456 -68.8975 -159.389
LeftHand  -0.25398 0.0180481 5.50724
RightShoulder  3.88368 7.71175 28.6365
RightArm  39.3382 -42.5582 13.4456
RightForeArm  -170.247 76.9445 142.524
RightHand  -4.74251 21.5895 -20.6611
LeftUpLeg  -2.62725 4.11362 1.87149
LeftLeg  5.58908 3.972 -2.83586
LeftFoot  -3.35211 0.00245699 0.296097
LeftToes  1.06246e-005 4.65855e-005 -8.18503e-006
326
root  -12.8697 40.9449 -8.01639 -8.97168 -83.518 8.8526
RightUpLeg  -0.865089 -11.0323 -11.7943
RightLeg  1.36389 -13.0487 2.9609
RightFoot  3.15842 -0.638519 5.18507
RightToes  0.00048216 0.542163 -0.142577
Spine  -7.4797 0.974656 -0.851565
Spine1  18.9528 2.36356 -3.21844
HEad  -22.8947 -8.44148 4.48858
LeftShoulder1  8.54161 -15.6238 -38.4768
LeftArm  47.9266 39.3682 5.08968
LeftForeArm  -148.755 -69.6527 -158.444
LeftHand  -0.25398 0.0180481 5.50724
RightShoulder  3.91481 7.80782 28.6174
RightArm  39.8794 -42.0953 12.7088
RightForeArm  -169.28 76.5471 143.814
RightHand  -4.74877 21.7238 -20.588
LeftUpLeg  -2.66127 4.06794 1.59692
LeftLeg  5.75177 4.7056 -2.77281
LeftFoot  -3.44056 -0.00633138 0.426838
LeftToes  1.06246e-005 4.65855e-005 -8.18503e-006
327
root  -12.7842 40.9328 -7.94716 -10.798 -84.1851 10.6361
RightUpLeg  -1.1519 -11.0801 -11.9128
RightLeg  1.38836 -12.3923 2.92072
RightFoot  3.35009 -0.654847 5.25345
RightToes  0.00048216 0.542163 -0.142577
Spine  -7.38832 0.840365 -0.534432
Spine1  19.2895 2.06049 -2.8503
HEad  -22.9235 -6.83218 4.17172
LeftShoulder1  8.56905 -15.6749 -38.4997
LeftArm  48.2244 38.8271 4.74932
LeftForeArm  -150.177 -70.3128 -157.536
LeftHand  -0.25398 0.0180481 5.50724
RightShoulder  3.97332 7.95648 28.6802
RightArm  40.8476 -41.1317 11.8987
RightForeArm  -169.972 76.3936 144.126
RightHand  -4.79815 21.8399 -20.7064
LeftUpLeg  -2.74421 4.02875 1.3912
LeftLeg  5.92329 5.43068 -2.68437
LeftFoot  -3.52334 -0.0136525 0.53367
LeftToes  1.06246e-005 4.65855e-005 -8.18503e-006
328
root  -12.7084 40.9227 -7.90346 -12.9957 -84.8649 12.8885
RightUpLeg  -1.53664 -11.0855 -11.9482
RightLeg  1.40621 -11.7882 2.87385
RightFoot  3.51929 -0.662252 5.2586
RightToes  0.00048216 0.542163 -0.142577
Spine  -7.56221 0.700098 -0.303023
Spine1  19.8439 1.82579 -2.65335
HEad  -22.9022 -5.31474 4.11733
LeftShoulder1  8.53816 -15.6889 -38.3139
LeftArm  48.3101 38.3615 4.28227
LeftForeArm  -151.148 -70.7835 -156.856
LeftHand  -0.25398 0.0180481 5.50724
RightShoulder  4.05993 8.09558 29.0193
RightArm  42.0324 -39.6375 10.978
RightForeArm  -171.646 76.3862 143.882
RightHand  -4.90491 21.8905 -21.106
LeftUpLeg  -2.88725 4.00515 1.24812
LeftLeg  6.01876 6.15312 -2.63556
LeftFoot  -3.56412 -0.0195217 0.617036
LeftToes  1.06246e-005 4.65855e-005 -8.18503e-006
329
root  -12.6416 40.9151 -7.87869 -16.0236 -85.536 16.0078
RightUpLeg  -1.96704 -11.084 -11.9562
RightLeg  1.45628 -11.1635 2.81639
RightFoot  3.65268 -0.66589 5.24583
RightToes  0.00048216 0.542163 -0.142577
Spine  -7.71553 0.581492 -0.214551
Spine1  20.2896 1.61567 -2.43956
HEad  -22.8559 -4.12082 4.32478
LeftShoulder1  8.52985 -15.7017 -38.244
LeftArm  48.3739 38.0516 3.95333
LeftForeArm  -151.714 -71.1028 -156.384
LeftHand  -0.25398 0.0180481 5.50724
RightShoulder  4.12677 8.18932 29.3172
RightArm  43.1995 -38.0421 10.1969
RightForeArm  -173.525 76.4463 143.414
RightHand  -5.1026 21.9908 -21.8358
LeftUpLeg  -3.01257 3.99377 1.14093
LeftLeg  6.02367 6.86805 -2.62763
LeftFoot  -3.57862 -0.0215624 0.640203
LeftToes  1.06246e-005 4.65855e-005 -8.18503e-006
330
root  -12.5856 40.91 -7.87466 -19.0278 -86.0783 19.0604
RightUpLeg  -2.2886 -11.0547 -11.9192
RightLeg  1.47868 -10.6634 2.77083
RightFoot  3.7598 -0.672225 5.26149
RightToes  0.00048216 0.542163 -0.142577
Spine  -7.68091 0.473323 -0.280984
Spine1  20.4931 1.33586 -1.99338
HEad  -22.7796 -3.31036 4.53787
LeftShoulder1  8.61476 -15.7432 -38.5746
LeftArm  48.5772 37.8001 3.97313
LeftForeArm  -152.244 -71.3502 -155.999
LeftHand  -0.25398 0.0180481 5.50724
RightShoulder  4.1307 8.2491 29.1678
RightArm  44.1524 -36.7972 9.8169
RightForeArm  -175.067 76.5294 142.928
RightHand  -5.318 22.1828 -22.5591
LeftUpLeg  -3.09261 3.99877 1.09348
LeftLeg  6.03478 7.44464 -2.59899
LeftFoot  -3.60714 -0.020184 0.609735
LeftToes  1.06246e-005 4.65855e-005 -8.18503e-006
331
root  -12.5404 40.9073 -7.89402 -20.7087 -86.4509 20.7692
RightUpLeg  -2.48825 -10.9725 -11.7934
RightLeg  1.43699 -10.4139 2.75317
RightFoot  3.84399 -0.676229 5.26638
RightToes  0.00048216 0.542163 -0.142577
Spine  -7.59542 0.352128 -0.365141
Spine1  20.65 1.03633 -1.53569
HEad  -22.709 -2.75791 4.73455
LeftShoulder1  8.7272 -15.8062 -38.9916
LeftArm  48.8368 37.5878 4.14822
LeftForeArm  -152.788 -71.5398 -155.684
LeftHand  -0.25398 0.0180481 5.50724
RightShoulder  4.11015 8.30428 28.8217
RightArm  44.8357 -35.9445 9.71458
RightForeArm  -176.071 76.595 142.573
RightHand  -5.44526 22.3652 -22.9256
LeftUpLeg  -3.20262 4.04121 1.13495
LeftLeg  6.13317 7.79791 -2.52902
LeftFoot  -3.65521 -0.0199543 0.596832
LeftToes  1.06246e-005 4.65855e-005 -8.18503e-006
332
root  -12.5006 40.9045 -7.92819 -21.9445 -86.7816 22.0942
RightUpLeg  -2.75237 -10.8896 -11.6188
RightLeg  1.44271 -10.2408 2.76153
RightFoot  3.89368 -0.66739 5.18558
RightToes  0.00048216 0.542163 -0.142577
Spine  -7.59766 0.260223 -0.287746
Spine1  20.8734 0.905927 -1.47699
HEad  -22.6634 -2.35773 5.1295
LeftShoulder1  8.77724 -15.8895 -39.0521
LeftArm  48.9998 37.5228 4.20213
LeftForeArm  -153.167 -71.6489 -155.493
LeftHand  -0.25398 0.0180481 5.50724
RightShoulder  4.13413 8.37357 28.8203
RightArm  45.3091 -35.3356 9.55622
RightForeArm  -176.62 76.609 142.439
RightHand  -5.50807 22.4724 -23.0906
LeftUpLeg  -3.4007 4.12324 1.22725
LeftLeg  6.274 8.05901 -2.469
LeftFoot  -3.69431 -0.0220594 0.620129
LeftToes  1.06246e-005 4.65855e-005 -8.18503e-006
333
root  -12.4635 40.9002 -7.96747 -24.7332 -87.1702 25.0187
RightUpLeg  -3.14552 -10.8795 -11.4818
RightLeg  1.58505 -9.91494 2.80247
RightFoot  3.90432 -0.647523 5.03425
RightToes  0.00048216 0.542163 -0.142577
Spine  -7.59905 0.257587 -0.10197
Spine1  21.0512 0.973768 -1.70655
HEad  -22.6499 -2.10335 5.6664
LeftShoulder1  8.7901 -15.9878 -38.8964
LeftArm  49.0057 37.5921 4.14351
LeftForeArm  -153.295 -71.6845 -155.43
LeftHand  -0.25398 0.0180481 5.50724
RightShoulder  4.18964 8.44693 29.0773
RightArm  45.6009 -34.9779 9.30243
RightForeArm  -176.91 76.5711 142.498
RightHand  -5.5947 22.5435 -23.3776
LeftUpLeg  -3.61102 4.21032 1.31227
LeftLeg  6.36813 8.38666 -2.44346
LeftFoot  -3.71311 -0.0213774 0.600229
LeftToes  1.06246e-005 4.65855e-005 -8.18503e-006
